<svg xmlns="http://www.w3.org/2000/svg" viewBox="0 0 40 48" xmlns:xlink="http://www.w3.org/1999/xlink" version="1.1">
<defs><style>

[data-element="el-22"] {
        fill: rgba(103, 26, 29, 1);
        stroke: none;
      }

[data-element="el-21"] {
        fill: rgba(180, 54, 111, 1);
        stroke: none;
      }

[data-element="el-20"] {
        fill: rgba(255, 255, 255, 1);
        stroke: none;
      }

[data-element="el-19"] {
        fill: rgba(103, 26, 29, 1);
        stroke: none;
      }

[data-element="el-18"] {
        fill: rgba(180, 54, 111, 1);
        stroke: none;
      }

[data-element="el-17"] {
        fill: rgba(255, 255, 255, 1);
        stroke: none;
      }

[data-element="el-16"] {
        fill: rgba(103, 26, 29, 1);
        stroke: none;
      }

[data-element="el-15"] {
        fill: rgba(180, 54, 111, 1);
        stroke: none;
      }

[data-element="el-14"] {
        fill: rgba(255, 255, 255, 1);
        stroke: none;
      }

[data-element="el-13"] {
        fill: rgba(103, 26, 29, 1);
        stroke: none;
      }

[data-element="el-12"] {
        fill: rgba(103, 26, 29, 1);
        stroke: none;
      }

[data-element="el-11"] {
        fill: rgba(180, 54, 111, 1);
        stroke: none;
      }

[data-element="el-10"] {
        fill: rgba(255, 255, 255, 1);
        stroke: none;
      }

[data-element="el-9"] {
        fill: rgba(180, 54, 111, 1);
        stroke: none;
      }

[data-element="el-8"] {
        fill: rgba(255, 255, 255, 1);
        stroke: none;
      }

[data-element="el-7"] {
        fill: rgba(103, 26, 29, 1);
        stroke: none;
      }

[data-element="el-6"] {
        fill: rgba(180, 54, 111, 1);
        stroke: none;
      }

[data-element="el-5"] {
        fill: rgba(255, 255, 255, 1);
        stroke: none;
      }

[data-element="el-4"] {
        fill: rgba(103, 26, 29, 1);
        stroke: none;
      }

[data-element="el-3"] {
        fill: rgba(103, 26, 29, 1);
        stroke: none;
      }

[data-element="el-2"] {
        fill: rgba(103, 26, 29, 1);
        stroke: none;
      }

[data-element="el-1"] {
        fill: rgba(45, 176, 141, 1);
        stroke: none;
      }

[data-element="el-0"] {
        fill: rgba(255, 255, 255, 1);
        stroke: none;
      }
</style></defs>
  <path d="M15.165 18.991c.294-7.878 2.01-13.417 6.12-16.387l2.16 3.84c4.5-5.22 13.44-.72 13.44-.72s0 6.72-2.071 9.07" fill-rule="evenodd" data-element="el-0"/>
  <path d="M18.045 21.871c.294-7.878 2.01-13.416 6.12-16.386l2.16 3.84c4.5-5.22 13.44-.72 13.44-.72s0 6.72-2.071 9.069" fill-rule="evenodd" data-element="el-1"/>
  <path d="M15.165 19.891l-.034-.001a.9.9 0 0 1-.866-.933c.325-8.687 2.388-14.116 6.492-17.082a.9.9 0 0 1 1.312.288l1.581 2.811c5.049-4.294 13.272-.239 13.639-.053a.898.898 0 0 1 .496.804c0 .722-.065 7.132-2.296 9.664a.9.9 0 1 1-1.35-1.19c1.371-1.555 1.773-5.798 1.836-7.9-1.867-.802-8.435-3.225-11.849.733a.901.901 0 0 1-1.466-.147L21.02 3.97c-3.095 2.752-4.677 7.578-4.956 15.055a.9.9 0 0 1-.899.866" fill-rule="evenodd" data-element="el-2"/>
  <path d="M14.776 19.367l-.024-.001a.901.901 0 0 1-.877-.923c.003-.086.185-8.709-2.907-12.83a.9.9 0 1 1 1.44-1.08c3.468 4.624 3.277 13.578 3.267 13.957a.9.9 0 0 1-.899.877" fill-rule="evenodd" data-element="el-3"/>
  <path d="M3.255 7.8c-1.585 0-3.27-1.045-3.27-2.982 0-1.634.805-3.016 2.21-3.793C4.161-.064 6.859.241 9.41 1.841a.9.9 0 0 1-.956 1.525C6.113 1.898 4.135 2.007 3.066 2.6c-.826.457-1.281 1.244-1.281 2.218 0 .935.961 1.182 1.47 1.182.373 0 .72-.105.952-.289.227-.18.338-.43.338-.764a.9.9 0 0 1 1.8 0c0 .882-.362 1.654-1.02 2.175-.552.437-1.288.678-2.07.678" fill-rule="evenodd" data-element="el-4"/>
  <path d="M31.062 37.007a5.94 5.94 0 1 1-11.474 3.075 5.94 5.94 0 0 1 11.474-3.075" fill-rule="evenodd" data-element="el-5"/>
  <path d="M33.942 39.887a5.94 5.94 0 1 1-11.473 3.072 5.94 5.94 0 0 1 11.473-3.072" fill-rule="evenodd" data-element="el-6"/>
  <path d="M25.314 45.386a6.805 6.805 0 0 1-3.408-.919 6.795 6.795 0 0 1-3.186-4.153 6.823 6.823 0 0 1-.175-2.67.91.91 0 0 1 1.011-.774.901.901 0 0 1 .774 1.011 5.015 5.015 0 0 0 .129 1.968 5.005 5.005 0 0 0 2.347 3.059 5.012 5.012 0 0 0 3.824.503 5.005 5.005 0 0 0 3.059-2.347 5.008 5.008 0 0 0 .504-3.824 4.984 4.984 0 0 0-.938-1.851.902.902 0 0 1 1.404-1.128 6.797 6.797 0 0 1 1.272 2.514 6.794 6.794 0 0 1-.683 5.189 6.793 6.793 0 0 1-4.153 3.186 6.864 6.864 0 0 1-1.781.236" fill-rule="evenodd" data-element="el-7"/>
  <path d="M33.996 26.94a6.207 6.207 0 1 1-11.988 3.21 6.207 6.207 0 0 1 11.988-3.21" fill-rule="evenodd" data-element="el-8"/>
  <path d="M36.876 29.819a6.207 6.207 0 1 1-11.992 3.212 6.207 6.207 0 0 1 11.992-3.212" fill-rule="evenodd" data-element="el-9"/>
  <path d="M24.005 29.617a6.206 6.206 0 0 1-4.389 7.601 6.206 6.206 0 1 1 4.389-7.601" fill-rule="evenodd" data-element="el-10"/>
  <path d="M26.885 32.497a6.206 6.206 0 1 1-11.99 3.212 6.206 6.206 0 0 1 11.99-3.212" fill-rule="evenodd" data-element="el-11"/>
  <path d="M18.011 38.331c-3.138 0-6.016-2.097-6.866-5.269a7.049 7.049 0 0 1-.101-3.257.9.9 0 1 1 1.764.36 5.252 5.252 0 0 0 .076 2.432 5.267 5.267 0 0 0 2.472 3.222 5.274 5.274 0 0 0 4.027.53 5.312 5.312 0 0 0 2.601-8.643.901.901 0 0 1 1.348-1.194 7.038 7.038 0 0 1 1.542 2.872 7.06 7.06 0 0 1-.71 5.392 7.055 7.055 0 0 1-4.316 3.311 7.062 7.062 0 0 1-1.837.244" fill-rule="evenodd" data-element="el-12"/>
  <path d="M28.012 35.651a7.139 7.139 0 0 1-4.479-1.579.9.9 0 0 1 1.13-1.4 5.334 5.334 0 0 0 4.712 1 5.315 5.315 0 0 0 3.753-6.5 5.289 5.289 0 0 0-.92-1.864.9.9 0 1 1 1.426-1.098 7.066 7.066 0 0 1 1.232 2.497c1.014 3.784-1.241 7.69-5.026 8.704a7.065 7.065 0 0 1-1.828.24" fill-rule="evenodd" data-element="el-13"/>
  <path d="M16.688 22.296a6.205 6.205 0 0 1-4.388 7.601 6.206 6.206 0 1 1-3.213-11.99 6.206 6.206 0 0 1 7.601 4.389" fill-rule="evenodd" data-element="el-14"/>
  <path d="M19.568 25.176a6.206 6.206 0 1 1-11.99 3.212 6.206 6.206 0 0 1 11.99-3.212" fill-rule="evenodd" data-element="el-15"/>
  <path d="M10.691 18.595a5.314 5.314 0 0 0-5.124 6.681 5.316 5.316 0 0 0 6.5 3.752 5.312 5.312 0 0 0 3.752-6.499 5.318 5.318 0 0 0-5.128-3.934zm.004 12.415c-3.138 0-6.016-2.097-6.866-5.269-1.015-3.785 1.24-7.689 5.025-8.703 3.784-1.016 7.69 1.239 8.703 5.025 1.015 3.785-1.239 7.689-5.025 8.703a7.062 7.062 0 0 1-1.837.244z" fill-rule="evenodd" data-element="el-16"/>
  <path d="M26.68 19.619a6.206 6.206 0 1 1-11.99 3.212 6.206 6.206 0 0 1 11.99-3.212" fill-rule="evenodd" data-element="el-17"/>
  <path d="M29.56 22.498a6.207 6.207 0 1 1-11.99 3.214 6.207 6.207 0 0 1 11.99-3.214" fill-rule="evenodd" data-element="el-18"/>
  <path d="M20.684 15.918c-.454 0-.914.059-1.373.181a5.274 5.274 0 0 0-3.222 2.472 5.277 5.277 0 0 0-.53 4.028 5.274 5.274 0 0 0 2.472 3.222 5.278 5.278 0 0 0 4.028.53 5.274 5.274 0 0 0 3.222-2.472 5.277 5.277 0 0 0 .53-4.028 5.316 5.316 0 0 0-5.127-3.933zm-.011 12.416a7.055 7.055 0 0 1-3.541-.955 7.053 7.053 0 0 1-3.311-4.315 7.056 7.056 0 0 1 .71-5.392 7.053 7.053 0 0 1 4.315-3.311c3.783-1.015 7.69 1.239 8.704 5.025 1.014 3.785-1.241 7.69-5.026 8.703a7.15 7.15 0 0 1-1.851.245z" fill-rule="evenodd" data-element="el-19"/>
  <path d="M36.672 16.941a6.207 6.207 0 1 1-11.992 3.212 6.207 6.207 0 0 1 11.992-3.212" fill-rule="evenodd" data-element="el-20"/>
  <path d="M39.552 19.821a6.207 6.207 0 1 1-11.992 3.212 6.207 6.207 0 0 1 11.992-3.212" fill-rule="evenodd" data-element="el-21"/>
  <path d="M30.676 13.24a5.312 5.312 0 0 0-5.125 6.681 5.316 5.316 0 0 0 6.499 3.753 5.314 5.314 0 0 0 3.753-6.5 5.317 5.317 0 0 0-5.127-3.934zm.003 12.415c-3.138 0-6.017-2.096-6.866-5.268-1.015-3.785 1.239-7.69 5.025-8.703 3.783-1.017 7.688 1.239 8.703 5.025 1.015 3.785-1.24 7.689-5.025 8.703a7.06 7.06 0 0 1-1.837.243z" fill-rule="evenodd" data-element="el-22"/>
</svg>
